<?xml version="1.0" encoding="utf-8"?>
<!-- Generator: Adobe Illustrator 24.2.0, SVG Export Plug-In . SVG Version: 6.00 Build 0)  -->
<svg version="1.1" xmlns="http://www.w3.org/2000/svg" xmlns:xlink="http://www.w3.org/1999/xlink" x="0px" y="0px"
	 viewBox="0 0 241.3 309.1" style="enable-background:new 0 0 241.3 309.1;" xml:space="preserve">
<style type="text/css">
	.st0{fill:#3356E2;}
</style>
<g id="BACKGROUND">
</g>
<g id="OBJECTS">
	<g>
		<g>
			<path class="st0" d="M211.5,238.8l1.4,2.1c0.6,0.9,1.6,1.4,2.6,1.3l0.4,0c4.4-0.1,8.6,2.5,10.3,6.6c4,9.6-4.5,18.7-14,15.9
				c-3.6-1.1-6.5-4-7.5-7.6c-0.7-2.3-0.6-4.5-0.1-6.5c0.6-2.1,0.1-4.4-1.1-6.2l-0.4-0.6c-2.1-3.1-6.2-4.1-9.5-2.4
				c-10.2,5.1-21.1,8.5-32.5,10c-1.9,0.3-3.4,1.9-3.4,3.8v0.7c0,1.3,0.7,2.5,1.7,3.2c6.8,4.7,10.6,13.3,8.4,22.6
				c-1.8,7.2-7.5,13-14.7,14.9c-14,3.6-26.6-6.8-26.6-20.2c0-7.1,3.6-13.4,9-17.2c1.1-0.7,1.7-1.9,1.7-3.2v-0.8
				c0-1.9-1.4-3.6-3.3-3.8c-22.9-3.2-43.4-14.2-58.7-30.2c-2.6-2.7-6.7-3.1-9.7-1l-3.1,2.1c-1.2,0.8-1.9,2.2-1.9,3.7l0,0.6
				c0,6.4-3.8,12.3-9.8,14.5c-12.6,4.7-24.4-6.2-21.4-18.6c1.3-5.5,5.6-9.9,11.1-11.3c3.1-0.8,6.2-0.7,8.9,0.1
				c2.2,0.7,4.7,0.4,6.6-1l1.3-0.9c3.1-2.2,4.1-6.3,2.2-9.7c-6.6-12.1-10.8-25.6-11.9-40c-0.4-4.7-4.3-8.3-8.9-8.3l-1.4,0
				c-2.3,0-4.5,0.9-6.3,2.4c-2.2,1.9-5,3-8.1,3c-7.8,0-14-7.3-11.9-15.5c1.1-4.2,4.4-7.6,8.5-8.7c4.4-1.2,8.6,0,11.5,2.6
				c1.7,1.5,3.8,2.4,6.1,2.4l3.4,0c4.3,0,8-3.1,8.9-7.3c3.1-14.5,9.3-27.9,17.9-39.3c3.2-4.3,2.9-10.2-0.7-14.1l-0.3-0.3
				c-2.2-2.4-5.4-3.8-8.6-3.5c-1.6,0.1-3.3,0.1-5-0.2c-8.1-1.1-16.6-8.7-18.6-16.6c-4.3-16.9,10.5-31.9,27.4-28
				c7.5,1.7,15.2,9.5,16.8,17c0.6,2.9,0.7,5.8,0.3,8.6c-0.5,3.2,0.6,6.5,2.8,8.8l0.5,0.5c3.6,3.9,9.4,4.6,13.9,1.9
				c5.3-3.2,10.9-5.9,16.7-8.1c2.9-1.1,4.5-4,4.1-7.1l-0.5-2.9c-0.3-1.7-1.2-3.1-2.6-4.1c-3.1-2.2-5.1-5.9-5.1-10
				c0-8.1,7.8-14.4,16.3-11.7c3.7,1.2,6.6,4.1,7.7,7.8c1.3,4.1,0.5,8-1.6,11c-1,1.4-1.5,3.2-1.2,4.9l0.1,0.9
				c0.6,3.4,3.7,5.8,7.1,5.4c3.7-0.4,7.4-0.6,11.3-0.6c4.6,0,9.2,0.3,13.6,0.9c3.2,0.4,6.3-1.4,7.5-4.5l0.9-2.3
				c0.7-1.9,0.7-4-0.2-5.9c-1.9-3.8-2.5-8.3-1.3-13.1c1.6-6.1,6.3-11,12.4-12.7c12.5-3.6,23.8,5.7,23.8,17.6c0,7.7-4.7,14.3-11.4,17
				c-1.8,0.8-3.3,2.2-4,4.1l-0.2,0.4c-1.3,3.4,0.2,7.2,3.4,8.8c12.8,6.3,24.1,15.2,33.3,26.2c9,10.8,5.2,27.2-7.6,32.9l0,0
				c-8.7,3.9-18.9,1.6-24.9-5.8c-11-13.3-27.5-21.4-45.2-21.4c-35,0-62.9,30.9-57.9,66.9c3.5,25.2,23.2,45.4,48.3,49.4
				c20.5,3.3,40.2-4.1,53.1-18.6c6.3-7.1,16.7-8.9,25.1-4.6l0,0c12.6,6.3,15.5,22.8,6.1,33.3c-3.1,3.4-6.5,6.7-10.1,9.7
				C209.9,231.4,209.3,235.7,211.5,238.8z"/>
		</g>
		<circle class="st0" cx="129.9" cy="132.6" r="20.2"/>
		<circle class="st0" cx="146.8" cy="182.2" r="13.6"/>
		<circle class="st0" cx="176" cy="148.4" r="11.8"/>
	</g>
</g>
</svg>
